<?xml version="1.0" encoding="UTF-8"?>
<svg id="Ebene_1" xmlns="http://www.w3.org/2000/svg" xmlns:xlink="http://www.w3.org/1999/xlink" version="1.1" viewBox="0 0 32 32">
  <!-- Generator: Adobe Illustrator 29.5.1, SVG Export Plug-In . SVG Version: 2.1.0 Build 141)  -->
  <defs>
    <style>
      .st0 {
        fill: none;
      }

      .st1 {
        fill: #1a2f96;
      }

      .st2 {
        fill: #fd39d4;
      }

      .st3 {
        fill: #f66c02;
      }

      .st4 {
        fill: #fff;
      }

      .st5 {
        fill: #dbc302;
      }

      .st6 {
        fill: #fe3636;
      }

      .st7 {
        fill: #14bfaf;
      }

      .st8 {
        fill: #624bad;
      }

      .st9 {
        fill: #85961f;
      }

      .st10 {
        clip-path: url(#clippath);
      }
    </style>
    <clipPath id="clippath">
      <path id="Fill" class="st0" d="M21.2,23.2c.1-.2.3-.4.4-.6l.2-.3c0-.2.3-.5.3-.7,0,0,0,0,0-.1v-.2c0,0,0,0,0,0,0,0,.3-.9.4-1.2,0-.3.1-.6.2-.9.2.6.6,1.1,1.1,1.5,0,0,0,0,0,0,.2.1.4.3.6.5l1.1.8s.5.5.6.8c.2.6.5,1.2.9,1.7.2.4.5.7.8,1,.6.7,1.1,1.3,1.8,1.9.2.1.3.3.5.4.2.1.4.3.6.3.5,0,1.1-.3,1-.9h0c0,0,0-.2,0-.2-.2-2-.3-4.1-.7-6.1,0-.4-.2-.9-.3-1.3-.2-.8-.4-1.7-.8-2.5-.5-1.2-1.3-2.2-2.1-3.2-.9-1.1-2.1-2.1-3.3-3.2,0,0,0-.2-.1-.2-.1-1.7-1-3.2-1.3-3.7,0,0-.2-.1-.3-.1-.2-.4-.4-.7-.6-.9,0,0,0,0,.1-.1-.5-.7-.8-1-1.3-1.3-1.1-.7-1.9-1.2-3.2-1.4-.9-.2-1.8-.2-2.3-.2,0,0,0,0,0,0,0,0,0,0-.2,0-.1,0-.2,0-.2,0,0,0,0,0,0,0-.5,0-1.4,0-2.3.2-1.4.2-2.1.7-3.2,1.4-.5.3-.8.6-1.3,1.3,0,0,0,.1.1.1-.2.2-.4.5-.6.9-.1,0-.2,0-.3.1-.3.5-1.2,2-1.3,3.7h0c-.9.8-1.9,1.5-2.8,2.3-.5.5-1,.9-1.3,1.5-.1.2-.2.4-.3.6,0,.2-.1.4-.2.6-.4,1.5-.8,3-1.1,4.5-.1.7-.2,1.3-.1,2,0,.2,0,.5,0,.7,0,.9,0,1.8-.2,2.6-.1.9-.2,1.8-.4,2.7-.1.5.3.8.7.9.2,0,.5,0,.7,0,.2-.1.4-.3.5-.4.7-.6,1.3-1.1,2-1.8.6-.6,1.2-1.3,1.6-2.1.2-.4.3-.8.4-1.2.2-.4.3-.8.5-1.2.4-.8.8-1.6,1.1-2.4.1-.3.2-.6.3-.8.1.7.3,1.5.7,2.2v.2c.1,0,.1,0,.2.1,0,.1.1.3.2.4h0c0,.2,0,.2,0,.3.1.2.2.4.4.6h0c0,.2,0,.2,0,.2.1.2.2.3.4.5v.2c.2,0,.2,0,.3.1.4.4.8.7,1.2,1,.5.2,1,.4,1.5.4.8,0,2.1,0,2.4-.8.2.6,1,.8,1.6.8.4,0,.8,0,1.2,0,.4,0,.8-.2,1.1-.4.3-.2.7-.4.9-.7,0,0,0,0,0,0,0,0,0,0,0,0q0,0,.1-.1c.2-.2.4-.4.6-.6h.1c0-.2,0-.3.1-.3M8.5,7.1c0,0-.1-.1-.2-.2.1-.2.3-.5.5-.7.2.1.4.1.4.1,1.5-1.5,3.5-2.4,6.2-2.4,0,0,0,0,0,0,0,0,0,0,.1,0,0,0,0,0,.1,0,0,0,0,0,0,0,2.7,0,4.7.9,6.2,2.4,0,0,.2,0,.4-.1.2.2.4.5.5.7,0,0-.2,0-.2.2.4.7,1.1,1.8,1.4,3.1-.2-.1-.3-.3-.5-.4,0-.1,0-.2-.1-.3-.1-.3-.3-.6-.5-.9-.5-.7-1.1-1.4-1.8-1.9-.3-.3-.7-.5-1.1-.8-.4-.2-.8-.4-1.2-.4-.4,0-.8-.1-1.3-.2-.7-.1-1.3-.1-2,.1-.6-.2-1.2-.2-2-.1-.4,0-.8.1-1.3.2-.4,0-.9.2-1.2.4-.4.2-.7.5-1.1.8-.7.5-1.3,1.2-1.8,1.9-.2.3-.3.5-.5.9,0,0,0,.2-.1.3,0,0,0,0,0,0-.2.1-.3.3-.5.4.3-1.3.9-2.4,1.4-3.1Z"/>
    </clipPath>
  </defs>
  <g id="Füllung_8TLR-Farben">
    <g class="st10">
      <rect id="FHYD" class="st6" x="0" y="0" width="4" height="32.2"/>
      <rect id="TANG" class="st3" x="3.9" y="0" width="4" height="32.2"/>
      <rect id="DURI" class="st5" x="8" y="0" width="4" height="32.2"/>
      <rect id="POML" class="st9" x="12" y="0" width="4" height="32.2"/>
      <rect id="TIFF" class="st7" x="16" y="0" width="4" height="32.2"/>
      <rect id="COCO" class="st1" x="20" y="0" width="4" height="32.2"/>
      <rect id="PLUM" class="st8" x="24" y="0" width="4" height="32.2"/>
      <rect id="FLAM" class="st2" x="28.1" y="0" width="4" height="32.2"/>
    </g>
  </g>
  <g id="Rechtes_Auge">
    <path d="M12.6,10.1q0,0,0-.2c-.1-.7-.6-1.2-1-1.7-.4-.5-2.6-2-1.8-.9.2.2.4.5.6.7-4.1,1.5-2.5,7.8,1.9,12.6,0,0,.7-7.1.8-8.5,0-.7-.1-1.3-.4-2.1Z"/>
    <path class="st4" d="M10.4,14.8c-1.2,0-2.2-.9-2.2-2.1s1-2.1,2.2-2.1,2.2.9,2.2,2.1-1,2.1-2.2,2.1Z"/>
  </g>
  <g id="Linkes_Auge">
    <path id="Linkes_Auge1" data-name="Linkes_Auge" d="M18.4,10.1q0,0,0-.2c.1-.7.6-1.2,1-1.7.4-.5,2.6-2,1.8-.9-.2.2-.4.5-.6.7,4.1,1.5,2.5,7.8-1.9,12.6,0,0-.7-7.1-.8-8.5,0-.7.1-1.3.4-2.1Z"/>
    <path id="Linke_Pupille" class="st4" d="M20.5,14.7c1.2,0,2.2-.9,2.2-2.1s-1-2.1-2.2-2.1-2.2.9-2.2,2.1,1,2.1,2.2,2.1Z"/>
  </g>
</svg>